<?xml version="1.0" standalone="no"?>
<!DOCTYPE svg PUBLIC "-//W3C//DTD SVG 20010904//EN"
 "http://www.w3.org/TR/2001/REC-SVG-20010904/DTD/svg10.dtd">
<svg version="1.0" xmlns="http://www.w3.org/2000/svg"
 width="1840.000000pt" height="1840.000000pt" viewBox="0 0 1840.000000 1840.000000"
 preserveAspectRatio="xMidYMid meet">
<metadata>
Created by potrace 1.14, written by Peter Selinger 2001-2017
</metadata>
<g transform="translate(0.000000,1840.000000) scale(0.100000,-0.100000)"
fill="#000000" stroke="none">
<path d="M0 9200 l0 -9200 9200 0 9200 0 0 9200 0 9200 -9200 0 -9200 0 0
-9200z m10495 3676 c149 -44 269 -139 327 -257 54 -111 69 -189 75 -381 l6
-178 -1602 0 c-1274 0 -1601 3 -1601 13 0 24 88 226 125 288 170 282 420 477
676 528 24 5 469 8 989 7 877 -2 949 -3 1005 -20z m-3028 -8 c-2 -7 -55 -192
-118 -410 l-113 -398 -1578 0 -1578 0 34 53 c70 111 434 684 459 725 l27 42
1436 0 c1145 0 1435 -3 1431 -12z m6985 -9 c117 -39 239 -143 293 -248 49 -97
85 -300 85 -478 l0 -63 -1884 0 -1885 0 257 405 257 404 1408 1 c1399 0 1408
0 1469 -21z m-3627 -1131 c-4 -18 -20 -76 -35 -128 -16 -52 -83 -282 -149
-510 -135 -470 -163 -551 -237 -697 -223 -438 -592 -727 -1056 -823 -175 -36
-293 -42 -763 -38 -492 5 -552 11 -727 69 -232 76 -388 197 -477 368 -50 96
-67 156 -81 280 -14 115 -2 284 30 441 16 78 209 810 266 1008 l15 52 565 0
c310 0 564 -3 564 -8 0 -4 -77 -275 -171 -602 -127 -446 -172 -614 -176 -672
l-6 -77 36 -36 35 -35 361 0 c285 0 368 3 394 14 47 20 92 72 125 146 17 36
110 336 208 667 l177 603 181 3 c100 1 349 3 554 5 l374 2 -7 -32z m-3691 -90
c-18 -62 -78 -261 -132 -443 l-99 -330 -781 -3 c-611 -2 -781 -5 -784 -15 -3
-6 -85 -306 -184 -664 l-178 -653 -639 0 -639 0 5 23 c4 12 142 511 308 1110
l303 1087 1427 0 1427 0 -34 -112z m7636 101 c0 -27 -34 -138 -60 -195 -15
-34 -47 -90 -70 -124 -85 -125 -274 -301 -381 -356 -27 -13 -49 -26 -49 -28 0
-2 16 -37 35 -77 50 -107 65 -177 65 -304 0 -220 -29 -347 -191 -847 l-90
-278 -544 0 -545 0 5 23 c3 12 90 312 193 667 l188 645 -570 3 c-313 1 -571 0
-573 -2 -4 -4 -354 -1132 -399 -1283 l-15 -53 -565 0 c-310 0 -564 3 -564 8
-1 4 145 503 322 1109 l323 1103 1743 0 c1266 0 1742 -3 1742 -11z m-8750
-2935 c129 -124 281 -268 337 -320 l101 -95 412 321 412 320 605 0 605 0 -6
-22 c-3 -13 -54 -197 -113 -410 l-107 -388 -1923 0 c-1277 0 -1923 3 -1923 10
0 6 50 188 110 405 61 217 110 397 110 400 0 3 258 5 573 4 l572 0 235 -225z
m5412 -181 c48 -224 85 -409 84 -410 -2 -2 -473 -2 -1048 -1 l-1045 3 346 407
346 407 615 0 615 1 87 -407z m2565 395 c-2 -7 -58 -192 -123 -410 l-119 -398
-589 0 c-555 0 -588 1 -584 18 3 9 54 191 113 404 l108 388 261 2 c851 9 938
9 933 -4z m-2399 -1155 c188 -890 376 -1760 381 -1766 4 -4 121 397 260 890
139 494 256 901 260 906 4 4 271 6 593 5 l585 -3 -187 -670 c-103 -368 -190
-680 -194 -692 l-7 -23 810 -2 811 -3 -337 -412 -338 -413 -1696 0 -1697 0
-164 663 -163 662 -346 3 -346 2 -488 -665 -489 -665 -1249 0 c-1184 0 -1248
1 -1243 18 29 95 545 1967 543 1969 -3 2 -157 -122 -663 -533 l-151 -123 -338
331 c-240 234 -340 326 -345 317 -4 -8 -126 -432 -270 -944 -144 -511 -268
-954 -276 -982 l-15 -53 -560 0 c-367 0 -559 3 -559 10 0 13 608 2201 613
2206 2 2 870 3 1928 2 l1924 -3 -255 -905 c-141 -498 -263 -932 -273 -964 -13
-46 -13 -57 -3 -45 8 7 350 445 760 972 l747 957 1214 0 1213 0 10 -47z"/>
</g>
</svg>
